<svg width="995" height="407" viewBox="0 0 995 407" fill="none" xmlns="http://www.w3.org/2000/svg">
<path fill-rule="evenodd" clip-rule="evenodd" d="M45.3385 283.815C65.1226 290.701 85.731 294.143 107.164 294.143C131.894 294.143 152.09 290.563 167.753 283.402C183.69 275.966 195.505 266.326 203.199 254.484C210.893 242.365 214.74 229.283 214.74 215.237C214.74 200.089 211.442 187.833 204.848 178.469C198.528 169.105 190.01 161.669 179.293 156.16C168.852 150.377 157.311 145.695 144.671 142.114C132.306 138.534 119.804 135.229 107.164 132.199C94.5239 129.17 82.8458 125.727 72.1295 121.871C61.6879 118.015 53.1697 112.645 46.575 105.759C40.2551 98.874 37.0951 89.7853 37.0951 78.4933C37.0951 68.5784 39.7055 59.7651 44.9263 52.0535C50.4219 44.0664 58.8027 37.7319 70.0686 33.0498C81.3345 28.3678 95.623 26.0267 112.934 26.0267C125.849 26.0267 139.176 27.9546 152.914 31.8105C161.252 34.1045 169.298 37.1785 177.052 41.0325V98.0134H203.054V25.3941H202.469C190.994 17.513 177.361 11.3893 161.57 7.02309C145.633 2.34103 129.558 0 113.346 0C88.891 0 68.8321 3.71811 53.1697 11.1543C37.5073 18.3151 25.8292 27.9546 18.1354 40.0729C10.7164 51.9158 7.00686 64.998 7.00686 79.3196C7.00686 94.7428 10.1668 107.274 16.4867 116.914C23.0814 126.278 31.5996 133.852 42.0412 139.635C52.7575 145.419 64.4356 150.101 77.0755 153.682C89.7153 156.987 102.355 160.154 114.995 163.183C127.635 166.213 139.175 169.793 149.617 173.925C160.059 177.78 168.439 183.151 174.759 190.036C181.354 196.922 184.651 206.011 184.651 217.303C184.651 226.667 181.904 235.205 176.408 242.916C171.187 250.628 162.806 256.825 151.266 261.507C140 265.913 125.299 268.117 107.164 268.117C88.204 268.117 70.0686 264.812 52.7575 258.202C35.7213 251.316 22.1197 242.916 11.9529 233.001L0 256.549C10.7164 267.566 25.8292 276.655 45.3385 283.815ZM825.38 38.0855L755.942 193.618H894.818L825.38 38.0855ZM905.884 218.405H744.875L721.912 269.839H735.785V296H655.283V269.839H690.424L810.542 6.47318H811.456V6.45504L891.958 6.45504V32.6161H852.553L960.748 269.839H995V296H914.498V269.839H928.847L905.884 218.405ZM548.97 295.215V32.4689H447.576V6.02905H680.863V32.4689H680.861V91.9844H655.283V32.4689H579.47V295.215H548.97ZM383.911 41.9C399.385 21.1968 421.148 6.06928 447.538 6.06928V32.4543C432.067 32.4543 417.303 41.2306 404.978 57.7195C400.798 63.3126 397.018 69.6574 393.721 76.5666C404.786 78.8581 415.04 82.6854 424.482 88.0484C441.243 97.4125 454.295 110.357 463.638 126.882C473.255 143.407 478.064 162.548 478.064 184.306C478.064 205.788 473.255 224.93 463.638 241.73C454.295 258.255 441.243 271.337 424.482 280.977C407.72 290.341 388.761 295.023 367.603 295.023C346.719 295.023 327.897 290.341 311.136 280.977C294.649 271.337 281.597 258.255 271.98 241.73C262.362 224.93 257.554 205.788 257.554 184.306C257.554 162.548 262.362 143.407 271.98 126.882C281.597 110.357 294.649 97.4125 311.136 88.0484C323.803 80.8536 337.849 76.4228 353.274 74.756C349.294 84.9973 347.451 91.6243 344.611 102.725C338.322 104.505 332.384 107.049 326.798 110.357C314.708 117.242 305.09 127.02 297.946 139.689C290.802 152.358 287.23 167.23 287.23 184.306C287.23 201.106 290.802 215.979 297.946 228.923C305.09 241.592 314.708 251.507 326.798 258.668C338.888 265.553 352.49 268.996 367.603 268.996C383.265 268.996 397.141 265.553 409.232 258.668C409.937 258.25 410.633 257.823 411.321 257.387C361.866 228.392 347.858 169.272 354.489 118.51C355.296 112.331 356.411 106.196 357.821 100.166L357.717 100.178C359.407 93.3502 360.78 88.4078 362.778 82.8753C367.956 67.7368 375.078 53.7176 383.911 41.9ZM384.717 101.143C382.912 107.854 381.519 114.823 380.59 121.935C374.329 169.865 389.298 218.218 431.716 238.339C433.881 235.39 435.866 232.252 437.671 228.923C444.815 215.979 448.388 201.106 448.388 184.306C448.388 167.23 444.815 152.358 437.671 139.689C430.802 127.02 421.322 117.242 409.232 110.357C401.7 105.896 393.529 102.825 384.717 101.143Z" fill="#DBA94D"/>
<path d="M21.578 393.324C18.77 393.324 16.07 392.874 13.478 391.974C10.922 391.038 8.942 389.85 7.538 388.41L9.104 385.332C10.436 386.628 12.218 387.726 14.45 388.626C16.718 389.49 19.094 389.922 21.578 389.922C23.954 389.922 25.88 389.634 27.356 389.058C28.868 388.446 29.966 387.636 30.65 386.628C31.37 385.62 31.73 384.504 31.73 383.28C31.73 381.804 31.298 380.616 30.434 379.716C29.606 378.816 28.508 378.114 27.14 377.61C25.772 377.07 24.26 376.602 22.604 376.206C20.948 375.81 19.292 375.396 17.636 374.964C15.98 374.496 14.45 373.884 13.046 373.128C11.678 372.372 10.562 371.382 9.698 370.158C8.87 368.898 8.456 367.26 8.456 365.244C8.456 363.372 8.942 361.662 9.914 360.114C10.922 358.53 12.452 357.27 14.504 356.334C16.556 355.362 19.184 354.876 22.388 354.876C24.512 354.876 26.618 355.182 28.706 355.794C30.794 356.37 32.594 357.18 34.106 358.224L32.756 361.41C31.136 360.33 29.408 359.538 27.572 359.034C25.772 358.53 24.026 358.278 22.334 358.278C20.066 358.278 18.194 358.584 16.718 359.196C15.242 359.808 14.144 360.636 13.424 361.68C12.74 362.688 12.398 363.84 12.398 365.136C12.398 366.612 12.812 367.8 13.64 368.7C14.504 369.6 15.62 370.302 16.988 370.806C18.392 371.31 19.922 371.76 21.578 372.156C23.234 372.552 24.872 372.984 26.492 373.452C28.148 373.92 29.66 374.532 31.028 375.288C32.432 376.008 33.548 376.98 34.376 378.204C35.24 379.428 35.672 381.03 35.672 383.01C35.672 384.846 35.168 386.556 34.16 388.14C33.152 389.688 31.604 390.948 29.516 391.92C27.464 392.856 24.818 393.324 21.578 393.324ZM43.2573 403.746C41.9253 403.746 40.6473 403.53 39.4233 403.098C38.2353 402.666 37.2093 402.018 36.3453 401.154L38.1273 398.292C38.8473 398.976 39.6213 399.498 40.4493 399.858C41.3133 400.254 42.2673 400.452 43.3113 400.452C44.5713 400.452 45.6513 400.092 46.5513 399.372C47.4873 398.688 48.3693 397.464 49.1973 395.7L51.0333 391.542L51.4653 390.948L63.1293 364.65H66.9093L52.7073 396.402C51.9153 398.238 51.0333 399.696 50.0613 400.776C49.1253 401.856 48.0993 402.612 46.9833 403.044C45.8673 403.512 44.6253 403.746 43.2573 403.746ZM50.8173 393.81L37.7493 364.65H41.7453L53.3013 390.678L50.8173 393.81ZM79.6065 393.27C77.2665 393.27 75.0525 392.946 72.9645 392.298C70.8765 391.614 69.2385 390.768 68.0505 389.76L69.7785 386.736C70.9305 387.6 72.4065 388.356 74.2065 389.004C76.0065 389.616 77.8965 389.922 79.8765 389.922C82.5765 389.922 84.5205 389.508 85.7085 388.68C86.8965 387.816 87.4905 386.682 87.4905 385.278C87.4905 384.234 87.1485 383.424 86.4645 382.848C85.8165 382.236 84.9525 381.786 83.8725 381.498C82.7925 381.174 81.5865 380.904 80.2545 380.688C78.9225 380.472 77.5905 380.22 76.2585 379.932C74.9625 379.644 73.7745 379.23 72.6945 378.69C71.6145 378.114 70.7325 377.34 70.0485 376.368C69.4005 375.396 69.0765 374.1 69.0765 372.48C69.0765 370.932 69.5085 369.546 70.3725 368.322C71.2365 367.098 72.4965 366.144 74.1525 365.46C75.8445 364.74 77.8965 364.38 80.3085 364.38C82.1445 364.38 83.9805 364.632 85.8165 365.136C87.6525 365.604 89.1645 366.234 90.3525 367.026L88.6785 370.104C87.4185 369.24 86.0685 368.628 84.6285 368.268C83.1885 367.872 81.7485 367.674 80.3085 367.674C77.7525 367.674 75.8625 368.124 74.6385 369.024C73.4505 369.888 72.8565 371.004 72.8565 372.372C72.8565 373.452 73.1805 374.298 73.8285 374.91C74.5125 375.522 75.3945 376.008 76.4745 376.368C77.5905 376.692 78.7965 376.962 80.0925 377.178C81.4245 377.394 82.7385 377.664 84.0345 377.988C85.3665 378.276 86.5725 378.69 87.6525 379.23C88.7685 379.734 89.6505 380.472 90.2985 381.444C90.9825 382.38 91.3245 383.622 91.3245 385.17C91.3245 386.826 90.8565 388.266 89.9205 389.49C89.0205 390.678 87.6885 391.614 85.9245 392.298C84.1965 392.946 82.0905 393.27 79.6065 393.27ZM107.324 393.27C104.66 393.27 102.608 392.55 101.168 391.11C99.7277 389.67 99.0077 387.636 99.0077 385.008V358.386H102.842V384.792C102.842 386.448 103.256 387.726 104.084 388.626C104.948 389.526 106.172 389.976 107.756 389.976C109.448 389.976 110.852 389.49 111.968 388.518L113.318 391.272C112.562 391.956 111.644 392.46 110.564 392.784C109.52 393.108 108.44 393.27 107.324 393.27ZM93.9317 367.836V364.65H111.482V367.836H93.9317ZM131.337 393.27C128.385 393.27 125.793 392.658 123.561 391.434C121.329 390.174 119.583 388.464 118.323 386.304C117.063 384.108 116.433 381.606 116.433 378.798C116.433 375.99 117.027 373.506 118.215 371.346C119.439 369.186 121.095 367.494 123.183 366.27C125.307 365.01 127.683 364.38 130.311 364.38C132.975 364.38 135.333 364.992 137.385 366.216C139.473 367.404 141.111 369.096 142.299 371.292C143.487 373.452 144.081 375.954 144.081 378.798C144.081 378.978 144.063 379.176 144.027 379.392C144.027 379.572 144.027 379.77 144.027 379.986H119.349V377.124H141.975L140.463 378.258C140.463 376.206 140.013 374.388 139.113 372.804C138.249 371.184 137.061 369.924 135.549 369.024C134.037 368.124 132.291 367.674 130.311 367.674C128.367 367.674 126.621 368.124 125.073 369.024C123.525 369.924 122.319 371.184 121.455 372.804C120.591 374.424 120.159 376.278 120.159 378.366V378.96C120.159 381.12 120.627 383.028 121.563 384.684C122.535 386.304 123.867 387.582 125.559 388.518C127.287 389.418 129.249 389.868 131.445 389.868C133.173 389.868 134.775 389.562 136.251 388.95C137.763 388.338 139.059 387.402 140.139 386.142L142.299 388.626C141.039 390.138 139.455 391.29 137.547 392.082C135.675 392.874 133.605 393.27 131.337 393.27ZM187.309 364.38C189.613 364.38 191.611 364.83 193.303 365.73C195.031 366.594 196.363 367.926 197.299 369.726C198.271 371.526 198.757 373.794 198.757 376.53V393H194.923V376.908C194.923 373.92 194.203 371.67 192.763 370.158C191.359 368.61 189.361 367.836 186.769 367.836C184.825 367.836 183.133 368.25 181.693 369.078C180.289 369.87 179.191 371.04 178.399 372.588C177.643 374.1 177.265 375.936 177.265 378.096V393H173.431V376.908C173.431 373.92 172.711 371.67 171.271 370.158C169.831 368.61 167.815 367.836 165.223 367.836C163.315 367.836 161.641 368.25 160.201 369.078C158.761 369.87 157.645 371.04 156.853 372.588C156.097 374.1 155.719 375.936 155.719 378.096V393H151.885V364.65H155.557V372.318L154.963 370.968C155.827 368.916 157.213 367.314 159.121 366.162C161.065 364.974 163.351 364.38 165.979 364.38C168.751 364.38 171.109 365.082 173.053 366.486C174.997 367.854 176.257 369.924 176.833 372.696L175.321 372.102C176.149 369.798 177.607 367.944 179.695 366.54C181.819 365.1 184.357 364.38 187.309 364.38ZM234.843 393.27C232.107 393.27 229.641 392.658 227.445 391.434C225.285 390.174 223.575 388.464 222.315 386.304C221.055 384.108 220.425 381.606 220.425 378.798C220.425 375.954 221.055 373.452 222.315 371.292C223.575 369.132 225.285 367.44 227.445 366.216C229.605 364.992 232.071 364.38 234.843 364.38C237.651 364.38 240.135 364.992 242.295 366.216C244.491 367.44 246.201 369.132 247.425 371.292C248.685 373.452 249.315 375.954 249.315 378.798C249.315 381.606 248.685 384.108 247.425 386.304C246.201 388.464 244.491 390.174 242.295 391.434C240.099 392.658 237.615 393.27 234.843 393.27ZM234.843 389.868C236.895 389.868 238.713 389.418 240.297 388.518C241.881 387.582 243.123 386.286 244.023 384.63C244.959 382.938 245.427 380.994 245.427 378.798C245.427 376.566 244.959 374.622 244.023 372.966C243.123 371.31 241.881 370.032 240.297 369.132C238.713 368.196 236.913 367.728 234.897 367.728C232.881 367.728 231.081 368.196 229.497 369.132C227.913 370.032 226.653 371.31 225.717 372.966C224.781 374.622 224.313 376.566 224.313 378.798C224.313 380.994 224.781 382.938 225.717 384.63C226.653 386.286 227.913 387.582 229.497 388.518C231.081 389.418 232.863 389.868 234.843 389.868ZM257.791 393V361.086C257.791 358.566 258.529 356.532 260.005 354.984C261.481 353.436 263.605 352.662 266.377 352.662C267.457 352.662 268.501 352.806 269.509 353.094C270.517 353.382 271.363 353.832 272.047 354.444L270.751 357.306C270.211 356.838 269.581 356.496 268.861 356.28C268.141 356.028 267.367 355.902 266.539 355.902C264.919 355.902 263.677 356.352 262.813 357.252C261.949 358.152 261.517 359.484 261.517 361.248V365.568L261.625 367.35V393H257.791ZM252.715 367.836V364.65H270.265V367.836H252.715ZM297.729 393V358.656H284.445V355.2H315.009V358.656H301.725V393H297.729ZM329.185 393.27C326.449 393.27 323.983 392.658 321.787 391.434C319.627 390.174 317.917 388.464 316.657 386.304C315.397 384.108 314.767 381.606 314.767 378.798C314.767 375.954 315.397 373.452 316.657 371.292C317.917 369.132 319.627 367.44 321.787 366.216C323.947 364.992 326.413 364.38 329.185 364.38C331.993 364.38 334.477 364.992 336.637 366.216C338.833 367.44 340.543 369.132 341.767 371.292C343.027 373.452 343.657 375.954 343.657 378.798C343.657 381.606 343.027 384.108 341.767 386.304C340.543 388.464 338.833 390.174 336.637 391.434C334.441 392.658 331.957 393.27 329.185 393.27ZM329.185 389.868C331.237 389.868 333.055 389.418 334.639 388.518C336.223 387.582 337.465 386.286 338.365 384.63C339.301 382.938 339.769 380.994 339.769 378.798C339.769 376.566 339.301 374.622 338.365 372.966C337.465 371.31 336.223 370.032 334.639 369.132C333.055 368.196 331.255 367.728 329.239 367.728C327.223 367.728 325.423 368.196 323.839 369.132C322.255 370.032 320.995 371.31 320.059 372.966C319.123 374.622 318.655 376.566 318.655 378.798C318.655 380.994 319.123 382.938 320.059 384.63C320.995 386.286 322.255 387.582 323.839 388.518C325.423 389.418 327.205 389.868 329.185 389.868ZM363.203 393.27C360.791 393.27 358.685 392.82 356.885 391.92C355.085 391.02 353.681 389.67 352.673 387.87C351.701 386.07 351.215 383.82 351.215 381.12V364.65H355.049V380.688C355.049 383.712 355.787 385.998 357.263 387.546C358.775 389.058 360.881 389.814 363.581 389.814C365.561 389.814 367.271 389.418 368.711 388.626C370.187 387.798 371.303 386.61 372.059 385.062C372.851 383.514 373.247 381.66 373.247 379.5V364.65H377.081V393H373.409V385.224L374.003 386.628C373.103 388.716 371.699 390.354 369.791 391.542C367.919 392.694 365.723 393.27 363.203 393.27ZM387.766 393V364.65H391.438V372.372L391.06 371.022C391.852 368.862 393.184 367.224 395.056 366.108C396.928 364.956 399.25 364.38 402.022 364.38V368.106C401.878 368.106 401.734 368.106 401.59 368.106C401.446 368.07 401.302 368.052 401.158 368.052C398.17 368.052 395.83 368.97 394.138 370.806C392.446 372.606 391.6 375.18 391.6 378.528V393H387.766ZM423.49 364.38C425.794 364.38 427.81 364.83 429.538 365.73C431.302 366.594 432.67 367.926 433.642 369.726C434.65 371.526 435.154 373.794 435.154 376.53V393H431.32V376.908C431.32 373.92 430.564 371.67 429.052 370.158C427.576 368.61 425.488 367.836 422.788 367.836C420.772 367.836 419.008 368.25 417.496 369.078C416.02 369.87 414.868 371.04 414.04 372.588C413.248 374.1 412.852 375.936 412.852 378.096V393H409.018V364.65H412.69V372.426L412.096 370.968C412.996 368.916 414.436 367.314 416.416 366.162C418.396 364.974 420.754 364.38 423.49 364.38ZM463.276 393V386.736L463.114 385.71V375.234C463.114 372.822 462.43 370.968 461.062 369.672C459.73 368.376 457.732 367.728 455.068 367.728C453.232 367.728 451.486 368.034 449.83 368.646C448.174 369.258 446.77 370.068 445.618 371.076L443.89 368.214C445.33 366.99 447.058 366.054 449.074 365.406C451.09 364.722 453.214 364.38 455.446 364.38C459.118 364.38 461.944 365.298 463.924 367.134C465.94 368.934 466.948 371.688 466.948 375.396V393H463.276ZM453.502 393.27C451.378 393.27 449.524 392.928 447.94 392.244C446.392 391.524 445.204 390.552 444.376 389.328C443.548 388.068 443.134 386.628 443.134 385.008C443.134 383.532 443.476 382.2 444.16 381.012C444.88 379.788 446.032 378.816 447.616 378.096C449.236 377.34 451.396 376.962 454.096 376.962H463.87V379.824H454.204C451.468 379.824 449.56 380.31 448.48 381.282C447.436 382.254 446.914 383.46 446.914 384.9C446.914 386.52 447.544 387.816 448.804 388.788C450.064 389.76 451.828 390.246 454.096 390.246C456.256 390.246 458.11 389.76 459.658 388.788C461.242 387.78 462.394 386.34 463.114 384.468L463.978 387.114C463.258 388.986 461.998 390.48 460.198 391.596C458.434 392.712 456.202 393.27 453.502 393.27ZM512.786 364.38C515.09 364.38 517.088 364.83 518.78 365.73C520.508 366.594 521.84 367.926 522.776 369.726C523.748 371.526 524.234 373.794 524.234 376.53V393H520.4V376.908C520.4 373.92 519.68 371.67 518.24 370.158C516.836 368.61 514.838 367.836 512.246 367.836C510.302 367.836 508.61 368.25 507.17 369.078C505.766 369.87 504.668 371.04 503.876 372.588C503.12 374.1 502.742 375.936 502.742 378.096V393H498.908V376.908C498.908 373.92 498.188 371.67 496.748 370.158C495.308 368.61 493.292 367.836 490.7 367.836C488.792 367.836 487.118 368.25 485.678 369.078C484.238 369.87 483.122 371.04 482.33 372.588C481.574 374.1 481.196 375.936 481.196 378.096V393H477.362V364.65H481.034V372.318L480.44 370.968C481.304 368.916 482.69 367.314 484.598 366.162C486.542 364.974 488.828 364.38 491.456 364.38C494.228 364.38 496.586 365.082 498.53 366.486C500.474 367.854 501.734 369.924 502.31 372.696L500.798 372.102C501.626 369.798 503.084 367.944 505.172 366.54C507.296 365.1 509.834 364.38 512.786 364.38ZM546.673 393.27C543.721 393.27 541.129 392.658 538.897 391.434C536.665 390.174 534.919 388.464 533.659 386.304C532.399 384.108 531.769 381.606 531.769 378.798C531.769 375.99 532.363 373.506 533.551 371.346C534.775 369.186 536.431 367.494 538.519 366.27C540.643 365.01 543.019 364.38 545.647 364.38C548.311 364.38 550.669 364.992 552.721 366.216C554.809 367.404 556.447 369.096 557.635 371.292C558.823 373.452 559.417 375.954 559.417 378.798C559.417 378.978 559.399 379.176 559.363 379.392C559.363 379.572 559.363 379.77 559.363 379.986H534.685V377.124H557.311L555.799 378.258C555.799 376.206 555.349 374.388 554.449 372.804C553.585 371.184 552.397 369.924 550.885 369.024C549.373 368.124 547.627 367.674 545.647 367.674C543.703 367.674 541.957 368.124 540.409 369.024C538.861 369.924 537.655 371.184 536.791 372.804C535.927 374.424 535.495 376.278 535.495 378.366V378.96C535.495 381.12 535.963 383.028 536.899 384.684C537.871 386.304 539.203 387.582 540.895 388.518C542.623 389.418 544.585 389.868 546.781 389.868C548.509 389.868 550.111 389.562 551.587 388.95C553.099 388.338 554.395 387.402 555.475 386.142L557.635 388.626C556.375 390.138 554.791 391.29 552.883 392.082C551.011 392.874 548.941 393.27 546.673 393.27ZM581.693 364.38C583.997 364.38 586.013 364.83 587.741 365.73C589.505 366.594 590.873 367.926 591.845 369.726C592.853 371.526 593.357 373.794 593.357 376.53V393H589.523V376.908C589.523 373.92 588.767 371.67 587.255 370.158C585.779 368.61 583.691 367.836 580.991 367.836C578.975 367.836 577.211 368.25 575.699 369.078C574.223 369.87 573.071 371.04 572.243 372.588C571.451 374.1 571.055 375.936 571.055 378.096V393H567.221V364.65H570.893V372.426L570.299 370.968C571.199 368.916 572.639 367.314 574.619 366.162C576.599 364.974 578.957 364.38 581.693 364.38ZM612.677 393.27C610.013 393.27 607.961 392.55 606.521 391.11C605.081 389.67 604.361 387.636 604.361 385.008V358.386H608.195V384.792C608.195 386.448 608.609 387.726 609.437 388.626C610.301 389.526 611.525 389.976 613.109 389.976C614.801 389.976 616.205 389.49 617.321 388.518L618.671 391.272C617.915 391.956 616.997 392.46 615.917 392.784C614.873 393.108 613.793 393.27 612.677 393.27ZM599.285 367.836V364.65H616.835V367.836H599.285ZM643.417 393V386.736L643.255 385.71V375.234C643.255 372.822 642.571 370.968 641.203 369.672C639.871 368.376 637.873 367.728 635.209 367.728C633.373 367.728 631.627 368.034 629.971 368.646C628.315 369.258 626.911 370.068 625.759 371.076L624.031 368.214C625.471 366.99 627.199 366.054 629.215 365.406C631.231 364.722 633.355 364.38 635.587 364.38C639.259 364.38 642.085 365.298 644.065 367.134C646.081 368.934 647.089 371.688 647.089 375.396V393H643.417ZM633.643 393.27C631.519 393.27 629.665 392.928 628.081 392.244C626.533 391.524 625.345 390.552 624.517 389.328C623.689 388.068 623.275 386.628 623.275 385.008C623.275 383.532 623.617 382.2 624.301 381.012C625.021 379.788 626.173 378.816 627.757 378.096C629.377 377.34 631.537 376.962 634.237 376.962H644.011V379.824H634.345C631.609 379.824 629.701 380.31 628.621 381.282C627.577 382.254 627.055 383.46 627.055 384.9C627.055 386.52 627.685 387.816 628.945 388.788C630.205 389.76 631.969 390.246 634.237 390.246C636.397 390.246 638.251 389.76 639.799 388.788C641.383 387.78 642.535 386.34 643.255 384.468L644.119 387.114C643.399 388.986 642.139 390.48 640.339 391.596C638.575 392.712 636.343 393.27 633.643 393.27ZM657.502 393V352.932H661.336V393H657.502ZM680.899 393L698.179 355.2H702.121L719.401 393H715.189L699.313 357.522H700.933L685.057 393H680.899ZM687.703 382.902L688.891 379.662H710.869L712.057 382.902H687.703ZM733.544 393.27C730.88 393.27 728.828 392.55 727.388 391.11C725.948 389.67 725.228 387.636 725.228 385.008V358.386H729.062V384.792C729.062 386.448 729.476 387.726 730.304 388.626C731.168 389.526 732.392 389.976 733.976 389.976C735.668 389.976 737.072 389.49 738.188 388.518L739.538 391.272C738.782 391.956 737.864 392.46 736.784 392.784C735.74 393.108 734.66 393.27 733.544 393.27ZM720.152 367.836V364.65H737.702V367.836H720.152ZM760.99 364.38C763.294 364.38 765.31 364.83 767.038 365.73C768.802 366.594 770.17 367.926 771.142 369.726C772.15 371.526 772.654 373.794 772.654 376.53V393H768.82V376.908C768.82 373.92 768.064 371.67 766.552 370.158C765.076 368.61 762.988 367.836 760.288 367.836C758.272 367.836 756.508 368.25 754.996 369.078C753.52 369.87 752.368 371.04 751.54 372.588C750.748 374.1 750.352 375.936 750.352 378.096V393H746.518V352.932H750.352V372.426L749.596 370.968C750.496 368.916 751.936 367.314 753.916 366.162C755.896 364.974 758.254 364.38 760.99 364.38ZM783.01 393V352.932H786.844V393H783.01ZM809.554 393.27C806.602 393.27 804.01 392.658 801.778 391.434C799.546 390.174 797.8 388.464 796.54 386.304C795.28 384.108 794.65 381.606 794.65 378.798C794.65 375.99 795.244 373.506 796.432 371.346C797.656 369.186 799.312 367.494 801.4 366.27C803.524 365.01 805.9 364.38 808.528 364.38C811.192 364.38 813.55 364.992 815.602 366.216C817.69 367.404 819.328 369.096 820.516 371.292C821.704 373.452 822.298 375.954 822.298 378.798C822.298 378.978 822.28 379.176 822.244 379.392C822.244 379.572 822.244 379.77 822.244 379.986H797.566V377.124H820.192L818.68 378.258C818.68 376.206 818.23 374.388 817.33 372.804C816.466 371.184 815.278 369.924 813.766 369.024C812.254 368.124 810.508 367.674 808.528 367.674C806.584 367.674 804.838 368.124 803.29 369.024C801.742 369.924 800.536 371.184 799.672 372.804C798.808 374.424 798.376 376.278 798.376 378.366V378.96C798.376 381.12 798.844 383.028 799.78 384.684C800.752 386.304 802.084 387.582 803.776 388.518C805.504 389.418 807.466 389.868 809.662 389.868C811.39 389.868 812.992 389.562 814.468 388.95C815.98 388.338 817.276 387.402 818.356 386.142L820.516 388.626C819.256 390.138 817.672 391.29 815.764 392.082C813.892 392.874 811.822 393.27 809.554 393.27ZM839.066 393.27C836.402 393.27 834.35 392.55 832.91 391.11C831.47 389.67 830.75 387.636 830.75 385.008V358.386H834.584V384.792C834.584 386.448 834.998 387.726 835.826 388.626C836.69 389.526 837.914 389.976 839.498 389.976C841.19 389.976 842.594 389.49 843.71 388.518L845.06 391.272C844.304 391.956 843.386 392.46 842.306 392.784C841.262 393.108 840.182 393.27 839.066 393.27ZM825.674 367.836V364.65H843.224V367.836H825.674ZM852.039 393V364.65H855.873V393H852.039ZM853.983 358.386C853.191 358.386 852.525 358.116 851.985 357.576C851.445 357.036 851.175 356.388 851.175 355.632C851.175 354.876 851.445 354.246 851.985 353.742C852.525 353.202 853.191 352.932 853.983 352.932C854.775 352.932 855.441 353.184 855.981 353.688C856.521 354.192 856.791 354.822 856.791 355.578C856.791 356.37 856.521 357.036 855.981 357.576C855.477 358.116 854.811 358.386 853.983 358.386ZM878.313 393.27C875.505 393.27 872.985 392.658 870.753 391.434C868.557 390.174 866.829 388.464 865.569 386.304C864.309 384.108 863.679 381.606 863.679 378.798C863.679 375.954 864.309 373.452 865.569 371.292C866.829 369.132 868.557 367.44 870.753 366.216C872.985 364.992 875.505 364.38 878.313 364.38C880.725 364.38 882.903 364.848 884.847 365.784C886.791 366.72 888.321 368.124 889.437 369.996L886.575 371.94C885.603 370.5 884.397 369.438 882.957 368.754C881.517 368.07 879.951 367.728 878.259 367.728C876.243 367.728 874.425 368.196 872.805 369.132C871.185 370.032 869.907 371.31 868.971 372.966C868.035 374.622 867.567 376.566 867.567 378.798C867.567 381.03 868.035 382.974 868.971 384.63C869.907 386.286 871.185 387.582 872.805 388.518C874.425 389.418 876.243 389.868 878.259 389.868C879.951 389.868 881.517 389.526 882.957 388.842C884.397 388.158 885.603 387.114 886.575 385.71L889.437 387.654C888.321 389.49 886.791 390.894 884.847 391.866C882.903 392.802 880.725 393.27 878.313 393.27ZM896.547 393V364.65H900.381V393H896.547ZM898.491 358.386C897.699 358.386 897.033 358.116 896.493 357.576C895.953 357.036 895.683 356.388 895.683 355.632C895.683 354.876 895.953 354.246 896.493 353.742C897.033 353.202 897.699 352.932 898.491 352.932C899.283 352.932 899.949 353.184 900.489 353.688C901.029 354.192 901.299 354.822 901.299 355.578C901.299 356.37 901.029 357.036 900.489 357.576C899.985 358.116 899.319 358.386 898.491 358.386ZM918.663 393.27C916.323 393.27 914.109 392.946 912.021 392.298C909.933 391.614 908.295 390.768 907.107 389.76L908.835 386.736C909.987 387.6 911.463 388.356 913.263 389.004C915.063 389.616 916.953 389.922 918.933 389.922C921.633 389.922 923.577 389.508 924.765 388.68C925.953 387.816 926.547 386.682 926.547 385.278C926.547 384.234 926.205 383.424 925.521 382.848C924.873 382.236 924.009 381.786 922.929 381.498C921.849 381.174 920.643 380.904 919.311 380.688C917.979 380.472 916.647 380.22 915.315 379.932C914.019 379.644 912.831 379.23 911.751 378.69C910.671 378.114 909.789 377.34 909.105 376.368C908.457 375.396 908.133 374.1 908.133 372.48C908.133 370.932 908.565 369.546 909.429 368.322C910.293 367.098 911.553 366.144 913.209 365.46C914.901 364.74 916.953 364.38 919.365 364.38C921.201 364.38 923.037 364.632 924.873 365.136C926.709 365.604 928.221 366.234 929.409 367.026L927.735 370.104C926.475 369.24 925.125 368.628 923.685 368.268C922.245 367.872 920.805 367.674 919.365 367.674C916.809 367.674 914.919 368.124 913.695 369.024C912.507 369.888 911.913 371.004 911.913 372.372C911.913 373.452 912.237 374.298 912.885 374.91C913.569 375.522 914.451 376.008 915.531 376.368C916.647 376.692 917.853 376.962 919.149 377.178C920.481 377.394 921.795 377.664 923.091 377.988C924.423 378.276 925.629 378.69 926.709 379.23C927.825 379.734 928.707 380.472 929.355 381.444C930.039 382.38 930.381 383.622 930.381 385.17C930.381 386.826 929.913 388.266 928.977 389.49C928.077 390.678 926.745 391.614 924.981 392.298C923.253 392.946 921.147 393.27 918.663 393.27ZM972.84 364.38C975.144 364.38 977.142 364.83 978.834 365.73C980.562 366.594 981.894 367.926 982.83 369.726C983.802 371.526 984.288 373.794 984.288 376.53V393H980.454V376.908C980.454 373.92 979.734 371.67 978.294 370.158C976.89 368.61 974.892 367.836 972.3 367.836C970.356 367.836 968.664 368.25 967.224 369.078C965.82 369.87 964.722 371.04 963.93 372.588C963.174 374.1 962.796 375.936 962.796 378.096V393H958.962V376.908C958.962 373.92 958.242 371.67 956.802 370.158C955.362 368.61 953.346 367.836 950.754 367.836C948.846 367.836 947.172 368.25 945.732 369.078C944.292 369.87 943.176 371.04 942.384 372.588C941.628 374.1 941.25 375.936 941.25 378.096V393H937.416V364.65H941.088V372.318L940.494 370.968C941.358 368.916 942.744 367.314 944.652 366.162C946.596 364.974 948.882 364.38 951.51 364.38C954.282 364.38 956.64 365.082 958.584 366.486C960.528 367.854 961.788 369.924 962.364 372.696L960.852 372.102C961.68 369.798 963.138 367.944 965.226 366.54C967.35 365.1 969.888 364.38 972.84 364.38Z" fill="white"/>
</svg>
