<svg width="1080" height="1080" viewBox="0 0 1080 1080" fill="none" xmlns="http://www.w3.org/2000/svg">
<rect width="1080" height="1080" fill="#DBA94D"/>
<path fill-rule="evenodd" clip-rule="evenodd" d="M88.3385 620.815C108.123 627.701 128.731 631.143 150.164 631.143C174.894 631.143 195.09 627.563 210.753 620.402C226.69 612.966 238.505 603.326 246.199 591.484C253.893 579.365 257.74 566.283 257.74 552.237C257.74 537.089 254.442 524.833 247.848 515.469C241.528 506.105 233.01 498.669 222.293 493.16C211.852 487.377 200.311 482.695 187.671 479.114C175.306 475.534 162.804 472.229 150.164 469.199C137.524 466.17 125.846 462.727 115.129 458.871C104.688 455.015 96.1697 449.645 89.575 442.759C83.2551 435.874 80.0951 426.785 80.0951 415.493C80.0951 405.578 82.7055 396.765 87.9263 389.053C93.4219 381.066 101.803 374.732 113.069 370.05C124.335 365.368 138.623 363.027 155.934 363.027C168.849 363.027 182.176 364.955 195.914 368.81C204.252 371.105 212.298 374.179 220.052 378.032V435.013H246.054V362.394H245.469C233.994 354.513 220.361 348.389 204.57 344.023C188.633 339.341 172.558 337 156.346 337C131.891 337 111.832 340.718 96.1697 348.154C80.5073 355.315 68.8292 364.955 61.1354 377.073C53.7164 388.916 50.0069 401.998 50.0069 416.32C50.0069 431.743 53.1668 444.274 59.4867 453.914C66.0814 463.278 74.5996 470.852 85.0412 476.635C95.7575 482.419 107.436 487.101 120.075 490.682C132.715 493.987 145.355 497.154 157.995 500.183C170.635 503.213 182.175 506.793 192.617 510.925C203.059 514.78 211.439 520.151 217.759 527.036C224.354 533.922 227.651 543.011 227.651 554.303C227.651 563.667 224.904 572.205 219.408 579.916C214.187 587.628 205.806 593.825 194.266 598.507C183 602.913 168.299 605.117 150.164 605.117C131.204 605.117 113.069 601.812 95.7575 595.202C78.7213 588.316 65.1197 579.916 54.9529 570.001L43 593.549C53.7164 604.566 68.8292 613.655 88.3385 620.815ZM868.38 375.086L798.942 530.618H937.818L868.38 375.086ZM948.884 555.405H787.875L764.912 606.839H778.785V633H698.283V606.839H733.424L853.542 343.473H854.456V343.455L934.958 343.455V369.616H895.553L1003.75 606.839H1038V633H957.498V606.839H971.847L948.884 555.405ZM591.97 632.215V369.469H490.576V343.029H723.863V369.469H723.861V428.984H698.283V369.469H622.47V632.215H591.97ZM426.911 378.9C442.385 358.197 464.148 343.069 490.538 343.069V369.454C475.067 369.454 460.303 378.231 447.978 394.72C443.798 400.313 440.018 406.657 436.721 413.567C447.786 415.858 458.04 419.685 467.482 425.048C484.243 434.413 497.295 447.357 506.638 463.882C516.255 480.407 521.064 499.548 521.064 521.306C521.064 542.788 516.255 561.93 506.638 578.73C497.295 595.255 484.243 608.337 467.482 617.977C450.72 627.341 431.761 632.023 410.603 632.023C389.719 632.023 370.897 627.341 354.136 617.977C337.649 608.337 324.597 595.255 314.98 578.73C305.362 561.93 300.554 542.788 300.554 521.306C300.554 499.548 305.362 480.407 314.98 463.882C324.597 447.357 337.649 434.413 354.136 425.048C366.803 417.854 380.849 413.423 396.274 411.756C392.294 421.997 390.451 428.624 387.611 439.725C381.322 441.505 375.384 444.049 369.798 447.357C357.708 454.242 348.09 464.02 340.946 476.689C333.802 489.358 330.23 504.23 330.23 521.306C330.23 538.106 333.802 552.979 340.946 565.923C348.09 578.592 357.708 588.507 369.798 595.668C381.888 602.553 395.49 605.996 410.603 605.996C426.265 605.996 440.141 602.553 452.232 595.668C452.937 595.25 453.633 594.823 454.321 594.387C404.866 565.392 390.858 506.272 397.489 455.51C398.296 449.331 399.411 443.196 400.821 437.166L400.717 437.178C402.407 430.35 403.78 425.408 405.778 419.875C410.956 404.737 418.078 390.718 426.911 378.9ZM427.717 438.143C425.912 444.854 424.519 451.823 423.59 458.935C417.329 506.865 432.298 555.218 474.716 575.339C476.881 572.39 478.866 569.252 480.671 565.923C487.815 552.979 491.388 538.106 491.388 521.306C491.388 504.23 487.815 489.358 480.671 476.689C473.802 464.02 464.322 454.242 452.232 447.357C444.7 442.896 436.529 439.825 427.717 438.143Z" fill="#213555"/>
<path d="M64.578 730.324C61.77 730.324 59.07 729.874 56.478 728.974C53.922 728.038 51.942 726.85 50.538 725.41L52.104 722.332C53.436 723.628 55.218 724.726 57.45 725.626C59.718 726.49 62.094 726.922 64.578 726.922C66.954 726.922 68.88 726.634 70.356 726.058C71.868 725.446 72.966 724.636 73.65 723.628C74.37 722.62 74.73 721.504 74.73 720.28C74.73 718.804 74.298 717.616 73.434 716.716C72.606 715.816 71.508 715.114 70.14 714.61C68.772 714.07 67.26 713.602 65.604 713.206C63.948 712.81 62.292 712.396 60.636 711.964C58.98 711.496 57.45 710.884 56.046 710.128C54.678 709.372 53.562 708.382 52.698 707.158C51.87 705.898 51.456 704.26 51.456 702.244C51.456 700.372 51.942 698.662 52.914 697.114C53.922 695.53 55.452 694.27 57.504 693.334C59.556 692.362 62.184 691.876 65.388 691.876C67.512 691.876 69.618 692.182 71.706 692.794C73.794 693.37 75.594 694.18 77.106 695.224L75.756 698.41C74.136 697.33 72.408 696.538 70.572 696.034C68.772 695.53 67.026 695.278 65.334 695.278C63.066 695.278 61.194 695.584 59.718 696.196C58.242 696.808 57.144 697.636 56.424 698.68C55.74 699.688 55.398 700.84 55.398 702.136C55.398 703.612 55.812 704.8 56.64 705.7C57.504 706.6 58.62 707.302 59.988 707.806C61.392 708.31 62.922 708.76 64.578 709.156C66.234 709.552 67.872 709.984 69.492 710.452C71.148 710.92 72.66 711.532 74.028 712.288C75.432 713.008 76.548 713.98 77.376 715.204C78.24 716.428 78.672 718.03 78.672 720.01C78.672 721.846 78.168 723.556 77.16 725.14C76.152 726.688 74.604 727.948 72.516 728.92C70.464 729.856 67.818 730.324 64.578 730.324ZM86.2573 740.746C84.9253 740.746 83.6473 740.53 82.4233 740.098C81.2353 739.666 80.2093 739.018 79.3453 738.154L81.1273 735.292C81.8473 735.976 82.6213 736.498 83.4493 736.858C84.3133 737.254 85.2673 737.452 86.3113 737.452C87.5713 737.452 88.6513 737.092 89.5513 736.372C90.4873 735.688 91.3693 734.464 92.1973 732.7L94.0333 728.542L94.4653 727.948L106.129 701.65H109.909L95.7073 733.402C94.9153 735.238 94.0333 736.696 93.0613 737.776C92.1253 738.856 91.0993 739.612 89.9833 740.044C88.8673 740.512 87.6253 740.746 86.2573 740.746ZM93.8173 730.81L80.7493 701.65H84.7453L96.3013 727.678L93.8173 730.81ZM122.606 730.27C120.266 730.27 118.052 729.946 115.964 729.298C113.876 728.614 112.238 727.768 111.05 726.76L112.778 723.736C113.93 724.6 115.406 725.356 117.206 726.004C119.006 726.616 120.896 726.922 122.876 726.922C125.576 726.922 127.52 726.508 128.708 725.68C129.896 724.816 130.49 723.682 130.49 722.278C130.49 721.234 130.148 720.424 129.464 719.848C128.816 719.236 127.952 718.786 126.872 718.498C125.792 718.174 124.586 717.904 123.254 717.688C121.922 717.472 120.59 717.22 119.258 716.932C117.962 716.644 116.774 716.23 115.694 715.69C114.614 715.114 113.732 714.34 113.048 713.368C112.4 712.396 112.076 711.1 112.076 709.48C112.076 707.932 112.508 706.546 113.372 705.322C114.236 704.098 115.496 703.144 117.152 702.46C118.844 701.74 120.896 701.38 123.308 701.38C125.144 701.38 126.98 701.632 128.816 702.136C130.652 702.604 132.164 703.234 133.352 704.026L131.678 707.104C130.418 706.24 129.068 705.628 127.628 705.268C126.188 704.872 124.748 704.674 123.308 704.674C120.752 704.674 118.862 705.124 117.638 706.024C116.45 706.888 115.856 708.004 115.856 709.372C115.856 710.452 116.18 711.298 116.828 711.91C117.512 712.522 118.394 713.008 119.474 713.368C120.59 713.692 121.796 713.962 123.092 714.178C124.424 714.394 125.738 714.664 127.034 714.988C128.366 715.276 129.572 715.69 130.652 716.23C131.768 716.734 132.65 717.472 133.298 718.444C133.982 719.38 134.324 720.622 134.324 722.17C134.324 723.826 133.856 725.266 132.92 726.49C132.02 727.678 130.688 728.614 128.924 729.298C127.196 729.946 125.09 730.27 122.606 730.27ZM150.324 730.27C147.66 730.27 145.608 729.55 144.168 728.11C142.728 726.67 142.008 724.636 142.008 722.008V695.386H145.842V721.792C145.842 723.448 146.256 724.726 147.084 725.626C147.948 726.526 149.172 726.976 150.756 726.976C152.448 726.976 153.852 726.49 154.968 725.518L156.318 728.272C155.562 728.956 154.644 729.46 153.564 729.784C152.52 730.108 151.44 730.27 150.324 730.27ZM136.932 704.836V701.65H154.482V704.836H136.932ZM174.337 730.27C171.385 730.27 168.793 729.658 166.561 728.434C164.329 727.174 162.583 725.464 161.323 723.304C160.063 721.108 159.433 718.606 159.433 715.798C159.433 712.99 160.027 710.506 161.215 708.346C162.439 706.186 164.095 704.494 166.183 703.27C168.307 702.01 170.683 701.38 173.311 701.38C175.975 701.38 178.333 701.992 180.385 703.216C182.473 704.404 184.111 706.096 185.299 708.292C186.487 710.452 187.081 712.954 187.081 715.798C187.081 715.978 187.063 716.176 187.027 716.392C187.027 716.572 187.027 716.77 187.027 716.986H162.349V714.124H184.975L183.463 715.258C183.463 713.206 183.013 711.388 182.113 709.804C181.249 708.184 180.061 706.924 178.549 706.024C177.037 705.124 175.291 704.674 173.311 704.674C171.367 704.674 169.621 705.124 168.073 706.024C166.525 706.924 165.319 708.184 164.455 709.804C163.591 711.424 163.159 713.278 163.159 715.366V715.96C163.159 718.12 163.627 720.028 164.563 721.684C165.535 723.304 166.867 724.582 168.559 725.518C170.287 726.418 172.249 726.868 174.445 726.868C176.173 726.868 177.775 726.562 179.251 725.95C180.763 725.338 182.059 724.402 183.139 723.142L185.299 725.626C184.039 727.138 182.455 728.29 180.547 729.082C178.675 729.874 176.605 730.27 174.337 730.27ZM230.309 701.38C232.613 701.38 234.611 701.83 236.303 702.73C238.031 703.594 239.363 704.926 240.299 706.726C241.271 708.526 241.757 710.794 241.757 713.53V730H237.923V713.908C237.923 710.92 237.203 708.67 235.763 707.158C234.359 705.61 232.361 704.836 229.769 704.836C227.825 704.836 226.133 705.25 224.693 706.078C223.289 706.87 222.191 708.04 221.399 709.588C220.643 711.1 220.265 712.936 220.265 715.096V730H216.431V713.908C216.431 710.92 215.711 708.67 214.271 707.158C212.831 705.61 210.815 704.836 208.223 704.836C206.315 704.836 204.641 705.25 203.201 706.078C201.761 706.87 200.645 708.04 199.853 709.588C199.097 711.1 198.719 712.936 198.719 715.096V730H194.885V701.65H198.557V709.318L197.963 707.968C198.827 705.916 200.213 704.314 202.121 703.162C204.065 701.974 206.351 701.38 208.979 701.38C211.751 701.38 214.109 702.082 216.053 703.486C217.997 704.854 219.257 706.924 219.833 709.696L218.321 709.102C219.149 706.798 220.607 704.944 222.695 703.54C224.819 702.1 227.357 701.38 230.309 701.38ZM277.843 730.27C275.107 730.27 272.641 729.658 270.445 728.434C268.285 727.174 266.575 725.464 265.315 723.304C264.055 721.108 263.425 718.606 263.425 715.798C263.425 712.954 264.055 710.452 265.315 708.292C266.575 706.132 268.285 704.44 270.445 703.216C272.605 701.992 275.071 701.38 277.843 701.38C280.651 701.38 283.135 701.992 285.295 703.216C287.491 704.44 289.201 706.132 290.425 708.292C291.685 710.452 292.315 712.954 292.315 715.798C292.315 718.606 291.685 721.108 290.425 723.304C289.201 725.464 287.491 727.174 285.295 728.434C283.099 729.658 280.615 730.27 277.843 730.27ZM277.843 726.868C279.895 726.868 281.713 726.418 283.297 725.518C284.881 724.582 286.123 723.286 287.023 721.63C287.959 719.938 288.427 717.994 288.427 715.798C288.427 713.566 287.959 711.622 287.023 709.966C286.123 708.31 284.881 707.032 283.297 706.132C281.713 705.196 279.913 704.728 277.897 704.728C275.881 704.728 274.081 705.196 272.497 706.132C270.913 707.032 269.653 708.31 268.717 709.966C267.781 711.622 267.313 713.566 267.313 715.798C267.313 717.994 267.781 719.938 268.717 721.63C269.653 723.286 270.913 724.582 272.497 725.518C274.081 726.418 275.863 726.868 277.843 726.868ZM300.791 730V698.086C300.791 695.566 301.529 693.532 303.005 691.984C304.481 690.436 306.605 689.662 309.377 689.662C310.457 689.662 311.501 689.806 312.509 690.094C313.517 690.382 314.363 690.832 315.047 691.444L313.751 694.306C313.211 693.838 312.581 693.496 311.861 693.28C311.141 693.028 310.367 692.902 309.539 692.902C307.919 692.902 306.677 693.352 305.813 694.252C304.949 695.152 304.517 696.484 304.517 698.248V702.568L304.625 704.35V730H300.791ZM295.715 704.836V701.65H313.265V704.836H295.715ZM340.729 730V695.656H327.445V692.2H358.009V695.656H344.725V730H340.729ZM372.185 730.27C369.449 730.27 366.983 729.658 364.787 728.434C362.627 727.174 360.917 725.464 359.657 723.304C358.397 721.108 357.767 718.606 357.767 715.798C357.767 712.954 358.397 710.452 359.657 708.292C360.917 706.132 362.627 704.44 364.787 703.216C366.947 701.992 369.413 701.38 372.185 701.38C374.993 701.38 377.477 701.992 379.637 703.216C381.833 704.44 383.543 706.132 384.767 708.292C386.027 710.452 386.657 712.954 386.657 715.798C386.657 718.606 386.027 721.108 384.767 723.304C383.543 725.464 381.833 727.174 379.637 728.434C377.441 729.658 374.957 730.27 372.185 730.27ZM372.185 726.868C374.237 726.868 376.055 726.418 377.639 725.518C379.223 724.582 380.465 723.286 381.365 721.63C382.301 719.938 382.769 717.994 382.769 715.798C382.769 713.566 382.301 711.622 381.365 709.966C380.465 708.31 379.223 707.032 377.639 706.132C376.055 705.196 374.255 704.728 372.239 704.728C370.223 704.728 368.423 705.196 366.839 706.132C365.255 707.032 363.995 708.31 363.059 709.966C362.123 711.622 361.655 713.566 361.655 715.798C361.655 717.994 362.123 719.938 363.059 721.63C363.995 723.286 365.255 724.582 366.839 725.518C368.423 726.418 370.205 726.868 372.185 726.868ZM406.203 730.27C403.791 730.27 401.685 729.82 399.885 728.92C398.085 728.02 396.681 726.67 395.673 724.87C394.701 723.07 394.215 720.82 394.215 718.12V701.65H398.049V717.688C398.049 720.712 398.787 722.998 400.263 724.546C401.775 726.058 403.881 726.814 406.581 726.814C408.561 726.814 410.271 726.418 411.711 725.626C413.187 724.798 414.303 723.61 415.059 722.062C415.851 720.514 416.247 718.66 416.247 716.5V701.65H420.081V730H416.409V722.224L417.003 723.628C416.103 725.716 414.699 727.354 412.791 728.542C410.919 729.694 408.723 730.27 406.203 730.27ZM430.766 730V701.65H434.438V709.372L434.06 708.022C434.852 705.862 436.184 704.224 438.056 703.108C439.928 701.956 442.25 701.38 445.022 701.38V705.106C444.878 705.106 444.734 705.106 444.59 705.106C444.446 705.07 444.302 705.052 444.158 705.052C441.17 705.052 438.83 705.97 437.138 707.806C435.446 709.606 434.6 712.18 434.6 715.528V730H430.766ZM466.49 701.38C468.794 701.38 470.81 701.83 472.538 702.73C474.302 703.594 475.67 704.926 476.642 706.726C477.65 708.526 478.154 710.794 478.154 713.53V730H474.32V713.908C474.32 710.92 473.564 708.67 472.052 707.158C470.576 705.61 468.488 704.836 465.788 704.836C463.772 704.836 462.008 705.25 460.496 706.078C459.02 706.87 457.868 708.04 457.04 709.588C456.248 711.1 455.852 712.936 455.852 715.096V730H452.018V701.65H455.69V709.426L455.096 707.968C455.996 705.916 457.436 704.314 459.416 703.162C461.396 701.974 463.754 701.38 466.49 701.38ZM506.276 730V723.736L506.114 722.71V712.234C506.114 709.822 505.43 707.968 504.062 706.672C502.73 705.376 500.732 704.728 498.068 704.728C496.232 704.728 494.486 705.034 492.83 705.646C491.174 706.258 489.77 707.068 488.618 708.076L486.89 705.214C488.33 703.99 490.058 703.054 492.074 702.406C494.09 701.722 496.214 701.38 498.446 701.38C502.118 701.38 504.944 702.298 506.924 704.134C508.94 705.934 509.948 708.688 509.948 712.396V730H506.276ZM496.502 730.27C494.378 730.27 492.524 729.928 490.94 729.244C489.392 728.524 488.204 727.552 487.376 726.328C486.548 725.068 486.134 723.628 486.134 722.008C486.134 720.532 486.476 719.2 487.16 718.012C487.88 716.788 489.032 715.816 490.616 715.096C492.236 714.34 494.396 713.962 497.096 713.962H506.87V716.824H497.204C494.468 716.824 492.56 717.31 491.48 718.282C490.436 719.254 489.914 720.46 489.914 721.9C489.914 723.52 490.544 724.816 491.804 725.788C493.064 726.76 494.828 727.246 497.096 727.246C499.256 727.246 501.11 726.76 502.658 725.788C504.242 724.78 505.394 723.34 506.114 721.468L506.978 724.114C506.258 725.986 504.998 727.48 503.198 728.596C501.434 729.712 499.202 730.27 496.502 730.27ZM555.786 701.38C558.09 701.38 560.088 701.83 561.78 702.73C563.508 703.594 564.84 704.926 565.776 706.726C566.748 708.526 567.234 710.794 567.234 713.53V730H563.4V713.908C563.4 710.92 562.68 708.67 561.24 707.158C559.836 705.61 557.838 704.836 555.246 704.836C553.302 704.836 551.61 705.25 550.17 706.078C548.766 706.87 547.668 708.04 546.876 709.588C546.12 711.1 545.742 712.936 545.742 715.096V730H541.908V713.908C541.908 710.92 541.188 708.67 539.748 707.158C538.308 705.61 536.292 704.836 533.7 704.836C531.792 704.836 530.118 705.25 528.678 706.078C527.238 706.87 526.122 708.04 525.33 709.588C524.574 711.1 524.196 712.936 524.196 715.096V730H520.362V701.65H524.034V709.318L523.44 707.968C524.304 705.916 525.69 704.314 527.598 703.162C529.542 701.974 531.828 701.38 534.456 701.38C537.228 701.38 539.586 702.082 541.53 703.486C543.474 704.854 544.734 706.924 545.31 709.696L543.798 709.102C544.626 706.798 546.084 704.944 548.172 703.54C550.296 702.1 552.834 701.38 555.786 701.38ZM589.673 730.27C586.721 730.27 584.129 729.658 581.897 728.434C579.665 727.174 577.919 725.464 576.659 723.304C575.399 721.108 574.769 718.606 574.769 715.798C574.769 712.99 575.363 710.506 576.551 708.346C577.775 706.186 579.431 704.494 581.519 703.27C583.643 702.01 586.019 701.38 588.647 701.38C591.311 701.38 593.669 701.992 595.721 703.216C597.809 704.404 599.447 706.096 600.635 708.292C601.823 710.452 602.417 712.954 602.417 715.798C602.417 715.978 602.399 716.176 602.363 716.392C602.363 716.572 602.363 716.77 602.363 716.986H577.685V714.124H600.311L598.799 715.258C598.799 713.206 598.349 711.388 597.449 709.804C596.585 708.184 595.397 706.924 593.885 706.024C592.373 705.124 590.627 704.674 588.647 704.674C586.703 704.674 584.957 705.124 583.409 706.024C581.861 706.924 580.655 708.184 579.791 709.804C578.927 711.424 578.495 713.278 578.495 715.366V715.96C578.495 718.12 578.963 720.028 579.899 721.684C580.871 723.304 582.203 724.582 583.895 725.518C585.623 726.418 587.585 726.868 589.781 726.868C591.509 726.868 593.111 726.562 594.587 725.95C596.099 725.338 597.395 724.402 598.475 723.142L600.635 725.626C599.375 727.138 597.791 728.29 595.883 729.082C594.011 729.874 591.941 730.27 589.673 730.27ZM624.693 701.38C626.997 701.38 629.013 701.83 630.741 702.73C632.505 703.594 633.873 704.926 634.845 706.726C635.853 708.526 636.357 710.794 636.357 713.53V730H632.523V713.908C632.523 710.92 631.767 708.67 630.255 707.158C628.779 705.61 626.691 704.836 623.991 704.836C621.975 704.836 620.211 705.25 618.699 706.078C617.223 706.87 616.071 708.04 615.243 709.588C614.451 711.1 614.055 712.936 614.055 715.096V730H610.221V701.65H613.893V709.426L613.299 707.968C614.199 705.916 615.639 704.314 617.619 703.162C619.599 701.974 621.957 701.38 624.693 701.38ZM655.677 730.27C653.013 730.27 650.961 729.55 649.521 728.11C648.081 726.67 647.361 724.636 647.361 722.008V695.386H651.195V721.792C651.195 723.448 651.609 724.726 652.437 725.626C653.301 726.526 654.525 726.976 656.109 726.976C657.801 726.976 659.205 726.49 660.321 725.518L661.671 728.272C660.915 728.956 659.997 729.46 658.917 729.784C657.873 730.108 656.793 730.27 655.677 730.27ZM642.285 704.836V701.65H659.835V704.836H642.285ZM686.417 730V723.736L686.255 722.71V712.234C686.255 709.822 685.571 707.968 684.203 706.672C682.871 705.376 680.873 704.728 678.209 704.728C676.373 704.728 674.627 705.034 672.971 705.646C671.315 706.258 669.911 707.068 668.759 708.076L667.031 705.214C668.471 703.99 670.199 703.054 672.215 702.406C674.231 701.722 676.355 701.38 678.587 701.38C682.259 701.38 685.085 702.298 687.065 704.134C689.081 705.934 690.089 708.688 690.089 712.396V730H686.417ZM676.643 730.27C674.519 730.27 672.665 729.928 671.081 729.244C669.533 728.524 668.345 727.552 667.517 726.328C666.689 725.068 666.275 723.628 666.275 722.008C666.275 720.532 666.617 719.2 667.301 718.012C668.021 716.788 669.173 715.816 670.757 715.096C672.377 714.34 674.537 713.962 677.237 713.962H687.011V716.824H677.345C674.609 716.824 672.701 717.31 671.621 718.282C670.577 719.254 670.055 720.46 670.055 721.9C670.055 723.52 670.685 724.816 671.945 725.788C673.205 726.76 674.969 727.246 677.237 727.246C679.397 727.246 681.251 726.76 682.799 725.788C684.383 724.78 685.535 723.34 686.255 721.468L687.119 724.114C686.399 725.986 685.139 727.48 683.339 728.596C681.575 729.712 679.343 730.27 676.643 730.27ZM700.502 730V689.932H704.336V730H700.502ZM723.899 730L741.179 692.2H745.121L762.401 730H758.189L742.313 694.522H743.933L728.057 730H723.899ZM730.703 719.902L731.891 716.662H753.869L755.057 719.902H730.703ZM776.544 730.27C773.88 730.27 771.828 729.55 770.388 728.11C768.948 726.67 768.228 724.636 768.228 722.008V695.386H772.062V721.792C772.062 723.448 772.476 724.726 773.304 725.626C774.168 726.526 775.392 726.976 776.976 726.976C778.668 726.976 780.072 726.49 781.188 725.518L782.538 728.272C781.782 728.956 780.864 729.46 779.784 729.784C778.74 730.108 777.66 730.27 776.544 730.27ZM763.152 704.836V701.65H780.702V704.836H763.152ZM803.99 701.38C806.294 701.38 808.31 701.83 810.038 702.73C811.802 703.594 813.17 704.926 814.142 706.726C815.15 708.526 815.654 710.794 815.654 713.53V730H811.82V713.908C811.82 710.92 811.064 708.67 809.552 707.158C808.076 705.61 805.988 704.836 803.288 704.836C801.272 704.836 799.508 705.25 797.996 706.078C796.52 706.87 795.368 708.04 794.54 709.588C793.748 711.1 793.352 712.936 793.352 715.096V730H789.518V689.932H793.352V709.426L792.596 707.968C793.496 705.916 794.936 704.314 796.916 703.162C798.896 701.974 801.254 701.38 803.99 701.38ZM826.01 730V689.932H829.844V730H826.01ZM852.554 730.27C849.602 730.27 847.01 729.658 844.778 728.434C842.546 727.174 840.8 725.464 839.54 723.304C838.28 721.108 837.65 718.606 837.65 715.798C837.65 712.99 838.244 710.506 839.432 708.346C840.656 706.186 842.312 704.494 844.4 703.27C846.524 702.01 848.9 701.38 851.528 701.38C854.192 701.38 856.55 701.992 858.602 703.216C860.69 704.404 862.328 706.096 863.516 708.292C864.704 710.452 865.298 712.954 865.298 715.798C865.298 715.978 865.28 716.176 865.244 716.392C865.244 716.572 865.244 716.77 865.244 716.986H840.566V714.124H863.192L861.68 715.258C861.68 713.206 861.23 711.388 860.33 709.804C859.466 708.184 858.278 706.924 856.766 706.024C855.254 705.124 853.508 704.674 851.528 704.674C849.584 704.674 847.838 705.124 846.29 706.024C844.742 706.924 843.536 708.184 842.672 709.804C841.808 711.424 841.376 713.278 841.376 715.366V715.96C841.376 718.12 841.844 720.028 842.78 721.684C843.752 723.304 845.084 724.582 846.776 725.518C848.504 726.418 850.466 726.868 852.662 726.868C854.39 726.868 855.992 726.562 857.468 725.95C858.98 725.338 860.276 724.402 861.356 723.142L863.516 725.626C862.256 727.138 860.672 728.29 858.764 729.082C856.892 729.874 854.822 730.27 852.554 730.27ZM882.066 730.27C879.402 730.27 877.35 729.55 875.91 728.11C874.47 726.67 873.75 724.636 873.75 722.008V695.386H877.584V721.792C877.584 723.448 877.998 724.726 878.826 725.626C879.69 726.526 880.914 726.976 882.498 726.976C884.19 726.976 885.594 726.49 886.71 725.518L888.06 728.272C887.304 728.956 886.386 729.46 885.306 729.784C884.262 730.108 883.182 730.27 882.066 730.27ZM868.674 704.836V701.65H886.224V704.836H868.674ZM895.039 730V701.65H898.873V730H895.039ZM896.983 695.386C896.191 695.386 895.525 695.116 894.985 694.576C894.445 694.036 894.175 693.388 894.175 692.632C894.175 691.876 894.445 691.246 894.985 690.742C895.525 690.202 896.191 689.932 896.983 689.932C897.775 689.932 898.441 690.184 898.981 690.688C899.521 691.192 899.791 691.822 899.791 692.578C899.791 693.37 899.521 694.036 898.981 694.576C898.477 695.116 897.811 695.386 896.983 695.386ZM921.313 730.27C918.505 730.27 915.985 729.658 913.753 728.434C911.557 727.174 909.829 725.464 908.569 723.304C907.309 721.108 906.679 718.606 906.679 715.798C906.679 712.954 907.309 710.452 908.569 708.292C909.829 706.132 911.557 704.44 913.753 703.216C915.985 701.992 918.505 701.38 921.313 701.38C923.725 701.38 925.903 701.848 927.847 702.784C929.791 703.72 931.321 705.124 932.437 706.996L929.575 708.94C928.603 707.5 927.397 706.438 925.957 705.754C924.517 705.07 922.951 704.728 921.259 704.728C919.243 704.728 917.425 705.196 915.805 706.132C914.185 707.032 912.907 708.31 911.971 709.966C911.035 711.622 910.567 713.566 910.567 715.798C910.567 718.03 911.035 719.974 911.971 721.63C912.907 723.286 914.185 724.582 915.805 725.518C917.425 726.418 919.243 726.868 921.259 726.868C922.951 726.868 924.517 726.526 925.957 725.842C927.397 725.158 928.603 724.114 929.575 722.71L932.437 724.654C931.321 726.49 929.791 727.894 927.847 728.866C925.903 729.802 923.725 730.27 921.313 730.27ZM939.547 730V701.65H943.381V730H939.547ZM941.491 695.386C940.699 695.386 940.033 695.116 939.493 694.576C938.953 694.036 938.683 693.388 938.683 692.632C938.683 691.876 938.953 691.246 939.493 690.742C940.033 690.202 940.699 689.932 941.491 689.932C942.283 689.932 942.949 690.184 943.489 690.688C944.029 691.192 944.299 691.822 944.299 692.578C944.299 693.37 944.029 694.036 943.489 694.576C942.985 695.116 942.319 695.386 941.491 695.386ZM961.663 730.27C959.323 730.27 957.109 729.946 955.021 729.298C952.933 728.614 951.295 727.768 950.107 726.76L951.835 723.736C952.987 724.6 954.463 725.356 956.263 726.004C958.063 726.616 959.953 726.922 961.933 726.922C964.633 726.922 966.577 726.508 967.765 725.68C968.953 724.816 969.547 723.682 969.547 722.278C969.547 721.234 969.205 720.424 968.521 719.848C967.873 719.236 967.009 718.786 965.929 718.498C964.849 718.174 963.643 717.904 962.311 717.688C960.979 717.472 959.647 717.22 958.315 716.932C957.019 716.644 955.831 716.23 954.751 715.69C953.671 715.114 952.789 714.34 952.105 713.368C951.457 712.396 951.133 711.1 951.133 709.48C951.133 707.932 951.565 706.546 952.429 705.322C953.293 704.098 954.553 703.144 956.209 702.46C957.901 701.74 959.953 701.38 962.365 701.38C964.201 701.38 966.037 701.632 967.873 702.136C969.709 702.604 971.221 703.234 972.409 704.026L970.735 707.104C969.475 706.24 968.125 705.628 966.685 705.268C965.245 704.872 963.805 704.674 962.365 704.674C959.809 704.674 957.919 705.124 956.695 706.024C955.507 706.888 954.913 708.004 954.913 709.372C954.913 710.452 955.237 711.298 955.885 711.91C956.569 712.522 957.451 713.008 958.531 713.368C959.647 713.692 960.853 713.962 962.149 714.178C963.481 714.394 964.795 714.664 966.091 714.988C967.423 715.276 968.629 715.69 969.709 716.23C970.825 716.734 971.707 717.472 972.355 718.444C973.039 719.38 973.381 720.622 973.381 722.17C973.381 723.826 972.913 725.266 971.977 726.49C971.077 727.678 969.745 728.614 967.981 729.298C966.253 729.946 964.147 730.27 961.663 730.27ZM1015.84 701.38C1018.14 701.38 1020.14 701.83 1021.83 702.73C1023.56 703.594 1024.89 704.926 1025.83 706.726C1026.8 708.526 1027.29 710.794 1027.29 713.53V730H1023.45V713.908C1023.45 710.92 1022.73 708.67 1021.29 707.158C1019.89 705.61 1017.89 704.836 1015.3 704.836C1013.36 704.836 1011.66 705.25 1010.22 706.078C1008.82 706.87 1007.72 708.04 1006.93 709.588C1006.17 711.1 1005.8 712.936 1005.8 715.096V730H1001.96V713.908C1001.96 710.92 1001.24 708.67 999.802 707.158C998.362 705.61 996.346 704.836 993.754 704.836C991.846 704.836 990.172 705.25 988.732 706.078C987.292 706.87 986.176 708.04 985.384 709.588C984.628 711.1 984.25 712.936 984.25 715.096V730H980.416V701.65H984.088V709.318L983.494 707.968C984.358 705.916 985.744 704.314 987.652 703.162C989.596 701.974 991.882 701.38 994.51 701.38C997.282 701.38 999.64 702.082 1001.58 703.486C1003.53 704.854 1004.79 706.924 1005.36 709.696L1003.85 709.102C1004.68 706.798 1006.14 704.944 1008.23 703.54C1010.35 702.1 1012.89 701.38 1015.84 701.38Z" fill="#1B2021"/>
</svg>
