<svg width="995" height="296" viewBox="0 0 995 296" fill="none" xmlns="http://www.w3.org/2000/svg">
<path fill-rule="evenodd" clip-rule="evenodd" d="M45.3385 283.815C65.1226 290.701 85.731 294.143 107.164 294.143C131.894 294.143 152.09 290.563 167.753 283.402C183.69 275.966 195.505 266.326 203.199 254.484C210.893 242.365 214.74 229.283 214.74 215.237C214.74 200.089 211.442 187.833 204.848 178.469C198.528 169.105 190.01 161.669 179.293 156.16C168.852 150.377 157.311 145.695 144.671 142.114C132.306 138.534 119.804 135.229 107.164 132.199C94.5239 129.17 82.8458 125.727 72.1295 121.871C61.6879 118.015 53.1697 112.645 46.575 105.759C40.2551 98.874 37.0951 89.7853 37.0951 78.4933C37.0951 68.5784 39.7055 59.7651 44.9263 52.0535C50.4219 44.0664 58.8027 37.7319 70.0686 33.0498C81.3345 28.3678 95.623 26.0267 112.934 26.0267C125.849 26.0267 139.176 27.9546 152.914 31.8105C161.252 34.1045 169.298 37.1785 177.052 41.0325V98.0134H203.054V25.3941H202.469C190.994 17.513 177.361 11.3893 161.57 7.02309C145.633 2.34103 129.558 0 113.346 0C88.891 0 68.8321 3.71811 53.1697 11.1543C37.5073 18.3151 25.8292 27.9546 18.1354 40.0729C10.7164 51.9158 7.00686 64.998 7.00686 79.3196C7.00686 94.7428 10.1668 107.274 16.4867 116.914C23.0814 126.278 31.5996 133.852 42.0412 139.635C52.7575 145.419 64.4356 150.101 77.0755 153.682C89.7153 156.987 102.355 160.154 114.995 163.183C127.635 166.213 139.175 169.793 149.617 173.925C160.059 177.78 168.439 183.151 174.759 190.036C181.354 196.922 184.651 206.011 184.651 217.303C184.651 226.667 181.904 235.205 176.408 242.916C171.187 250.628 162.806 256.825 151.266 261.507C140 265.913 125.299 268.117 107.164 268.117C88.204 268.117 70.0686 264.812 52.7575 258.202C35.7213 251.316 22.1197 242.916 11.9529 233.001L0 256.549C10.7164 267.566 25.8292 276.655 45.3385 283.815ZM825.38 38.0855L755.942 193.618H894.818L825.38 38.0855ZM905.884 218.405H744.875L721.912 269.839H735.785V296H655.283V269.839H690.424L810.542 6.47318H811.456V6.45504L891.958 6.45504V32.6161H852.553L960.748 269.839H995V296H914.498V269.839H928.847L905.884 218.405ZM548.97 295.215V32.4689H447.576V6.02905H680.863V32.4689H680.861V91.9844H655.283V32.4689H579.47V295.215H548.97ZM383.911 41.9C399.385 21.1968 421.148 6.06928 447.538 6.06928V32.4543C432.067 32.4543 417.303 41.2306 404.978 57.7195C400.798 63.3126 397.018 69.6574 393.721 76.5666C404.786 78.8581 415.04 82.6854 424.482 88.0484C441.243 97.4125 454.295 110.357 463.638 126.882C473.255 143.407 478.064 162.548 478.064 184.306C478.064 205.788 473.255 224.93 463.638 241.73C454.295 258.255 441.243 271.337 424.482 280.977C407.72 290.341 388.761 295.023 367.603 295.023C346.719 295.023 327.897 290.341 311.136 280.977C294.649 271.337 281.597 258.255 271.98 241.73C262.362 224.93 257.554 205.788 257.554 184.306C257.554 162.548 262.362 143.407 271.98 126.882C281.597 110.357 294.649 97.4125 311.136 88.0484C323.803 80.8536 337.849 76.4228 353.274 74.756C349.294 84.9973 347.451 91.6243 344.611 102.725C338.322 104.505 332.384 107.049 326.798 110.357C314.708 117.242 305.09 127.02 297.946 139.689C290.802 152.358 287.23 167.23 287.23 184.306C287.23 201.106 290.802 215.979 297.946 228.923C305.09 241.592 314.708 251.507 326.798 258.668C338.888 265.553 352.49 268.996 367.603 268.996C383.265 268.996 397.141 265.553 409.232 258.668C409.937 258.25 410.633 257.823 411.321 257.387C361.866 228.392 347.858 169.272 354.489 118.51C355.296 112.331 356.411 106.196 357.821 100.166L357.717 100.178C359.407 93.3502 360.78 88.4078 362.778 82.8753C367.956 67.7368 375.078 53.7176 383.911 41.9ZM384.717 101.143C382.912 107.854 381.519 114.823 380.59 121.935C374.329 169.865 389.298 218.218 431.716 238.339C433.881 235.39 435.866 232.252 437.671 228.923C444.815 215.979 448.388 201.106 448.388 184.306C448.388 167.23 444.815 152.358 437.671 139.689C430.802 127.02 421.322 117.242 409.232 110.357C401.7 105.896 393.529 102.825 384.717 101.143Z" fill="#213555"/>
</svg>
